<mxfile host="app.diagrams.net" agent="Mozilla/5.0 (Windows NT 10.0; Win64; x64) AppleWebKit/537.36 (KHTML, like Gecko) Chrome/131.0.0.0 Safari/537.36" version="25.0.3">
  <diagram id="F3Ts5LlEeghKnjsBf12C" name="Page-1">
    <mxGraphModel dx="1551" dy="815" grid="1" gridSize="10" guides="1" tooltips="1" connect="1" arrows="1" fold="1" page="1" pageScale="1" pageWidth="827" pageHeight="1169" math="0" shadow="0">
      <root>
        <mxCell id="0" />
        <mxCell id="1" parent="0" />
        <mxCell id="jfFL-IoRXQJpSJMDC_-3-3" style="edgeStyle=orthogonalEdgeStyle;rounded=0;orthogonalLoop=1;jettySize=auto;html=1;exitX=0.5;exitY=1;exitDx=0;exitDy=0;entryX=0;entryY=0.5;entryDx=0;entryDy=0;" edge="1" parent="1" source="jfFL-IoRXQJpSJMDC_-3-1" target="jfFL-IoRXQJpSJMDC_-3-2">
          <mxGeometry relative="1" as="geometry" />
        </mxCell>
        <mxCell id="jfFL-IoRXQJpSJMDC_-3-9" style="edgeStyle=orthogonalEdgeStyle;rounded=0;orthogonalLoop=1;jettySize=auto;html=1;exitX=0.5;exitY=1;exitDx=0;exitDy=0;entryX=0;entryY=0.5;entryDx=0;entryDy=0;" edge="1" parent="1" source="jfFL-IoRXQJpSJMDC_-3-1" target="jfFL-IoRXQJpSJMDC_-3-7">
          <mxGeometry relative="1" as="geometry" />
        </mxCell>
        <mxCell id="jfFL-IoRXQJpSJMDC_-3-20" style="edgeStyle=orthogonalEdgeStyle;rounded=0;orthogonalLoop=1;jettySize=auto;html=1;exitX=0.5;exitY=1;exitDx=0;exitDy=0;entryX=0;entryY=0.5;entryDx=0;entryDy=0;" edge="1" parent="1" source="jfFL-IoRXQJpSJMDC_-3-1" target="jfFL-IoRXQJpSJMDC_-3-11">
          <mxGeometry relative="1" as="geometry" />
        </mxCell>
        <mxCell id="jfFL-IoRXQJpSJMDC_-3-21" style="edgeStyle=orthogonalEdgeStyle;rounded=0;orthogonalLoop=1;jettySize=auto;html=1;exitX=0.5;exitY=1;exitDx=0;exitDy=0;entryX=0;entryY=0.5;entryDx=0;entryDy=0;" edge="1" parent="1" source="jfFL-IoRXQJpSJMDC_-3-1" target="jfFL-IoRXQJpSJMDC_-3-12">
          <mxGeometry relative="1" as="geometry" />
        </mxCell>
        <mxCell id="jfFL-IoRXQJpSJMDC_-3-22" style="edgeStyle=orthogonalEdgeStyle;rounded=0;orthogonalLoop=1;jettySize=auto;html=1;exitX=0.5;exitY=1;exitDx=0;exitDy=0;entryX=0;entryY=0.5;entryDx=0;entryDy=0;" edge="1" parent="1" source="jfFL-IoRXQJpSJMDC_-3-1" target="jfFL-IoRXQJpSJMDC_-3-16">
          <mxGeometry relative="1" as="geometry" />
        </mxCell>
        <mxCell id="jfFL-IoRXQJpSJMDC_-3-23" style="edgeStyle=orthogonalEdgeStyle;rounded=0;orthogonalLoop=1;jettySize=auto;html=1;exitX=0.5;exitY=1;exitDx=0;exitDy=0;entryX=0;entryY=0.5;entryDx=0;entryDy=0;" edge="1" parent="1" source="jfFL-IoRXQJpSJMDC_-3-1" target="jfFL-IoRXQJpSJMDC_-3-17">
          <mxGeometry relative="1" as="geometry" />
        </mxCell>
        <mxCell id="jfFL-IoRXQJpSJMDC_-3-24" style="edgeStyle=orthogonalEdgeStyle;rounded=0;orthogonalLoop=1;jettySize=auto;html=1;exitX=0.5;exitY=1;exitDx=0;exitDy=0;entryX=0;entryY=0.5;entryDx=0;entryDy=0;" edge="1" parent="1" source="jfFL-IoRXQJpSJMDC_-3-1" target="jfFL-IoRXQJpSJMDC_-3-18">
          <mxGeometry relative="1" as="geometry" />
        </mxCell>
        <mxCell id="jfFL-IoRXQJpSJMDC_-3-25" style="edgeStyle=orthogonalEdgeStyle;rounded=0;orthogonalLoop=1;jettySize=auto;html=1;exitX=0.5;exitY=1;exitDx=0;exitDy=0;entryX=0;entryY=0.5;entryDx=0;entryDy=0;" edge="1" parent="1" source="jfFL-IoRXQJpSJMDC_-3-1" target="jfFL-IoRXQJpSJMDC_-3-19">
          <mxGeometry relative="1" as="geometry" />
        </mxCell>
        <mxCell id="jfFL-IoRXQJpSJMDC_-3-1" value="Главная" style="rounded=0;whiteSpace=wrap;html=1;" vertex="1" parent="1">
          <mxGeometry x="80" y="40" width="120" height="60" as="geometry" />
        </mxCell>
        <mxCell id="jfFL-IoRXQJpSJMDC_-3-5" style="edgeStyle=orthogonalEdgeStyle;rounded=0;orthogonalLoop=1;jettySize=auto;html=1;exitX=0.5;exitY=1;exitDx=0;exitDy=0;entryX=0;entryY=0.5;entryDx=0;entryDy=0;" edge="1" parent="1" source="jfFL-IoRXQJpSJMDC_-3-2" target="jfFL-IoRXQJpSJMDC_-3-4">
          <mxGeometry relative="1" as="geometry" />
        </mxCell>
        <mxCell id="jfFL-IoRXQJpSJMDC_-3-2" value="Магазин" style="rounded=0;whiteSpace=wrap;html=1;" vertex="1" parent="1">
          <mxGeometry x="160" y="120" width="120" height="60" as="geometry" />
        </mxCell>
        <mxCell id="jfFL-IoRXQJpSJMDC_-3-4" value="Карточки" style="rounded=0;whiteSpace=wrap;html=1;" vertex="1" parent="1">
          <mxGeometry x="240" y="190" width="120" height="60" as="geometry" />
        </mxCell>
        <mxCell id="jfFL-IoRXQJpSJMDC_-3-6" style="edgeStyle=orthogonalEdgeStyle;rounded=0;orthogonalLoop=1;jettySize=auto;html=1;exitX=0.5;exitY=1;exitDx=0;exitDy=0;entryX=0;entryY=0.5;entryDx=0;entryDy=0;" edge="1" parent="1" source="jfFL-IoRXQJpSJMDC_-3-7" target="jfFL-IoRXQJpSJMDC_-3-8">
          <mxGeometry relative="1" as="geometry" />
        </mxCell>
        <mxCell id="jfFL-IoRXQJpSJMDC_-3-7" value="Блог" style="rounded=0;whiteSpace=wrap;html=1;" vertex="1" parent="1">
          <mxGeometry x="160" y="260" width="120" height="60" as="geometry" />
        </mxCell>
        <mxCell id="jfFL-IoRXQJpSJMDC_-3-8" value="Статьи" style="rounded=0;whiteSpace=wrap;html=1;" vertex="1" parent="1">
          <mxGeometry x="240" y="330" width="120" height="60" as="geometry" />
        </mxCell>
        <mxCell id="jfFL-IoRXQJpSJMDC_-3-11" value="О нас" style="rounded=0;whiteSpace=wrap;html=1;" vertex="1" parent="1">
          <mxGeometry x="160" y="400" width="120" height="60" as="geometry" />
        </mxCell>
        <mxCell id="jfFL-IoRXQJpSJMDC_-3-12" value="Авторизация" style="rounded=0;whiteSpace=wrap;html=1;" vertex="1" parent="1">
          <mxGeometry x="160" y="470" width="120" height="60" as="geometry" />
        </mxCell>
        <mxCell id="jfFL-IoRXQJpSJMDC_-3-16" value="Регистрация" style="rounded=0;whiteSpace=wrap;html=1;" vertex="1" parent="1">
          <mxGeometry x="160" y="540" width="120" height="60" as="geometry" />
        </mxCell>
        <mxCell id="jfFL-IoRXQJpSJMDC_-3-17" value="Параметры пользователя" style="rounded=0;whiteSpace=wrap;html=1;" vertex="1" parent="1">
          <mxGeometry x="160" y="610" width="120" height="60" as="geometry" />
        </mxCell>
        <mxCell id="jfFL-IoRXQJpSJMDC_-3-18" value="Корзина" style="rounded=0;whiteSpace=wrap;html=1;" vertex="1" parent="1">
          <mxGeometry x="160" y="680" width="120" height="60" as="geometry" />
        </mxCell>
        <mxCell id="jfFL-IoRXQJpSJMDC_-3-19" value="Панель администрации" style="rounded=0;whiteSpace=wrap;html=1;" vertex="1" parent="1">
          <mxGeometry x="160" y="750" width="120" height="60" as="geometry" />
        </mxCell>
      </root>
    </mxGraphModel>
  </diagram>
</mxfile>
